<svg xmlns="http://www.w3.org/2000/svg" viewBox="0 0 300 200" width="300" height="200">
<rect width="300" height="200" fill="white"/>
<circle cx="80" cy="100" r="22" stroke="#333" stroke-width="1.5" fill="none"/>
<path d="M80,86 A8,8 0 1,1 72,94" stroke="#555" stroke-width="1.5" fill="none" stroke-linecap="round"/>
<path d="M80,114 A8,8 0 1,1 88,106" stroke="#555" stroke-width="1.5" fill="none" stroke-linecap="round"/>
<line x1="102" y1="100" x2="128" y2="100" stroke="#555" stroke-width="1" stroke-linecap="round"/>
<circle cx="150" cy="100" r="22" stroke="#333" stroke-width="1.5" fill="none"/>
<path d="M150,86 A8,8 0 1,1 142,94" stroke="#555" stroke-width="1.5" fill="none" stroke-linecap="round"/>
<path d="M150,114 A8,8 0 1,1 158,106" stroke="#555" stroke-width="1.5" fill="none" stroke-linecap="round"/>
<line x1="172" y1="100" x2="198" y2="100" stroke="#555" stroke-width="1" stroke-linecap="round"/>
<circle cx="220" cy="100" r="22" stroke="#333" stroke-width="1.5" fill="none"/>
<polyline points="210,100 217,107 230,93" stroke="#555" stroke-width="1.5" fill="none" stroke-linecap="round" stroke-linejoin="round"/>
</svg>