<svg xmlns="http://www.w3.org/2000/svg" viewBox="0 0 300 200" width="300" height="200">
<rect width="300" height="200" fill="white"/>
<circle cx="95" cy="80" r="15" stroke="#333" stroke-width="1.5" fill="none"/>
<path d="M75,120 Q75,100 95,100 Q115,100 115,120" stroke="#333" stroke-width="1.5" fill="none" stroke-linecap="round"/>
<circle cx="205" cy="80" r="15" stroke="#333" stroke-width="1.5" fill="none"/>
<path d="M185,120 Q185,100 205,100 Q225,100 225,120" stroke="#333" stroke-width="1.5" fill="none" stroke-linecap="round"/>
<path d="M130,85 A25,25 0 0,1 170,85" stroke="#555" stroke-width="1.5" fill="none" stroke-linecap="round"/>
<polyline points="166,79 170,85 164,89" stroke="#555" stroke-width="1" fill="none" stroke-linecap="round" stroke-linejoin="round"/>
<path d="M170,110 A25,25 0 0,1 130,110" stroke="#555" stroke-width="1.5" fill="none" stroke-linecap="round"/>
<polyline points="134,104 130,110 136,114" stroke="#555" stroke-width="1" fill="none" stroke-linecap="round" stroke-linejoin="round"/>
</svg>